<?xml version="1.0" standalone="no"?>
<!DOCTYPE svg PUBLIC "-//W3C//DTD SVG 20010904//EN"
 "http://www.w3.org/TR/2001/REC-SVG-20010904/DTD/svg10.dtd">
<svg version="1.0" xmlns="http://www.w3.org/2000/svg"
 width="700.000000pt" height="700.000000pt" viewBox="0 0 700.000000 700.000000"
 preserveAspectRatio="xMidYMid meet">
<metadata>
Created by potrace 1.14, written by Peter Selinger 2001-2017
</metadata>
<g transform="translate(0.000000,700.000000) scale(0.100000,-0.100000)"
fill="#000000" stroke="none">
<path d="M157 6932 l-48 -3 5 -57 c2 -31 5 -62 5 -68 1 -8 56 -12 184 -13 100
-1 205 -3 232 -6 100 -7 201 -16 225 -20 14 -2 48 -6 75 -10 192 -21 499 -96
679 -165 83 -32 206 -92 266 -128 19 -12 42 -25 50 -29 42 -19 291 -214 450
-352 372 -323 597 -691 809 -1319 66 -193 177 -576 216 -742 2 -8 22 -90 44
-182 22 -92 42 -178 45 -190 2 -13 14 -66 26 -118 12 -52 23 -102 25 -110 2
-8 24 -99 49 -203 210 -863 467 -1459 805 -1868 84 -102 296 -305 426 -408 72
-57 139 -110 150 -120 64 -52 379 -284 425 -313 282 -178 693 -321 1104 -384
21 -3 48 -7 59 -10 12 -2 51 -6 87 -10 36 -3 79 -8 95 -10 17 -2 76 -7 133
-10 l102 -6 1 43 c1 44 -1 92 -5 96 -1 1 -46 5 -101 8 -100 7 -128 9 -220 20
-54 6 -155 22 -195 30 -29 6 -123 24 -160 31 -171 33 -449 128 -625 214 -175
85 -238 126 -511 335 -313 240 -354 275 -494 415 -167 166 -242 259 -351 432
-274 435 -457 957 -685 1958 -182 801 -355 1342 -555 1743 -201 400 -416 646
-883 1011 -134 105 -200 149 -309 205 -204 106 -413 177 -712 240 -78 17 -224
38 -389 56 -125 13 -430 23 -529 17z"/>
<path d="M4279 6920 c0 -8 -2 -25 -3 -37 -5 -41 16 -51 90 -44 12 1 19 90 7
92 -57 7 -93 3 -94 -11z"/>
<path d="M3552 6892 l-22 -3 2 -392 3 -392 50 0 50 0 1 150 1 150 48 38 c26
21 51 36 56 35 4 -2 64 -73 134 -158 182 -222 174 -215 245 -215 33 0 60 2 60
4 0 4 -131 161 -163 196 -55 59 -209 246 -206 250 2 2 78 78 168 169 l164 166
-44 1 c-77 2 -83 -1 -163 -84 -293 -302 -296 -305 -297 -278 0 14 -1 101 -1
193 l0 166 -32 4 c-17 1 -41 2 -54 0z"/>
<path d="M4745 6709 c-34 -10 -60 -31 -93 -73 l-22 -29 0 52 0 51 -48 0 -49 0
1 -300 c0 -195 4 -301 11 -303 9 -3 50 -2 80 2 6 1 10 76 11 204 0 228 8 261
73 304 48 32 129 32 167 0 35 -31 40 -67 39 -309 0 -126 3 -199 10 -201 8 -3
64 -2 86 2 4 1 6 110 5 244 -2 235 -2 243 -26 284 -40 72 -145 103 -245 72z"/>
<path d="M5310 6711 c-51 -16 -90 -42 -115 -78 -42 -62 -31 -83 41 -83 30 0
37 4 46 30 13 39 56 61 116 61 93 1 132 -34 135 -118 l2 -48 -90 -3 c-216 -7
-292 -53 -302 -183 -9 -123 58 -193 183 -192 77 0 146 31 182 83 l27 36 15
-45 c18 -53 45 -71 110 -71 55 0 65 7 68 43 2 25 -1 27 -33 27 -23 0 -38 6
-44 18 -5 10 -11 106 -13 213 -4 186 -5 195 -28 231 -40 59 -90 81 -190 84
-47 1 -96 -1 -110 -5z m226 -349 c1 -44 -19 -99 -48 -129 -47 -52 -133 -76
-192 -53 -72 27 -66 163 9 199 35 17 144 29 195 21 32 -5 35 -9 36 -38z"/>
<path d="M5896 6699 c-64 -24 -92 -51 -105 -103 -18 -71 -2 -119 52 -159 30
-23 57 -33 221 -84 77 -23 104 -56 90 -110 -12 -50 -48 -68 -139 -68 -84 0
-125 15 -149 57 -17 28 -21 30 -59 24 -23 -4 -43 -8 -45 -10 -9 -10 29 -75 57
-99 42 -35 99 -50 191 -50 92 0 149 15 191 50 50 42 61 82 50 180 -2 23 -54
74 -95 92 -22 11 -75 28 -116 39 -100 25 -132 41 -148 75 -19 39 -1 82 40 96
78 27 192 2 213 -47 9 -20 15 -22 54 -17 24 3 46 6 48 8 1 2 -7 23 -20 47 -32
64 -93 93 -201 96 -59 1 -95 -3 -130 -17z"/>
<path d="M6516 6705 c-63 -24 -102 -61 -133 -122 -26 -54 -28 -66 -28 -178 0
-104 3 -126 23 -165 46 -95 115 -139 225 -144 115 -5 206 33 246 105 l21 36
-40 12 c-39 11 -40 11 -78 -27 -102 -102 -265 -52 -289 90 -13 79 -31 73 202
73 116 0 213 3 216 8 6 8 5 31 -6 110 -10 83 -61 158 -129 193 -44 23 -180 28
-230 9z m188 -83 c32 -19 61 -69 71 -122 l6 -35 -160 -1 -161 -1 0 29 c0 63
57 138 115 150 34 8 99 -3 129 -20z"/>
<path d="M4279 6703 c0 -5 -2 -140 -2 -300 -1 -188 2 -294 8 -296 6 -2 28 -3
50 -3 l40 1 1 303 2 302 -49 0 c-27 0 -49 -3 -50 -7z"/>
<path d="M3880 5174 c-52 -18 -212 -73 -355 -123 -143 -49 -267 -92 -277 -96
-15 -6 -15 -10 -1 -53 9 -26 17 -48 18 -50 2 -2 61 17 131 42 71 24 237 81
369 127 132 45 241 83 242 84 2 1 -5 24 -15 52 l-17 50 -95 -33z"/>
<path d="M3615 4758 c-154 -44 -281 -82 -283 -83 -5 -5 9 -70 17 -84 7 -10 49
-1 192 39 101 29 203 53 226 53 57 0 103 -30 131 -83 40 -79 24 -138 -47 -167
-20 -9 -121 -40 -225 -69 -103 -29 -190 -55 -193 -57 -3 -4 15 -83 22 -95 1
-1 98 25 216 59 284 80 328 107 334 203 7 101 -59 214 -134 231 -38 8 -33 21
14 29 19 4 36 10 39 14 6 10 -14 92 -23 91 -3 0 -132 -37 -286 -81z"/>
<path d="M4165 4219 c-124 -30 -234 -56 -465 -110 -74 -17 -151 -35 -171 -40
l-37 -9 12 -48 c10 -38 17 -46 32 -44 10 2 84 19 164 39 186 45 253 51 300 25
61 -32 99 -138 70 -193 -16 -30 -86 -58 -210 -84 -20 -4 -185 -43 -233 -54
-21 -5 -40 -11 -42 -13 -2 -2 1 -25 7 -51 8 -37 13 -47 26 -43 10 3 28 7 42
10 14 2 61 13 105 24 44 11 123 30 175 42 126 30 184 60 208 108 40 79 1 222
-73 270 -19 12 -39 22 -45 22 -5 0 -10 4 -10 9 0 5 19 11 43 15 23 4 91 18
150 32 l108 26 -7 30 c-3 17 -7 38 -8 46 -2 9 -7 17 -12 18 -5 2 -63 -10 -129
-27z"/>
<path d="M4385 3623 c-34 -8 -39 -20 -26 -66 l13 -44 44 10 45 11 -7 40 c-9
60 -13 62 -69 49z"/>
<path d="M4040 3540 c-85 -22 -166 -41 -180 -43 -14 -3 -54 -13 -90 -22 -36
-9 -78 -19 -95 -22 -16 -3 -32 -6 -34 -8 -2 -2 0 -25 3 -50 5 -29 12 -45 21
-45 13 0 158 33 420 97 55 13 114 26 131 29 l30 6 -11 47 c-7 25 -18 47 -26
48 -8 0 -84 -16 -169 -37z"/>
<path d="M4195 3339 c-148 -43 -322 -93 -385 -110 -63 -17 -116 -32 -117 -33
-6 -5 26 -91 33 -90 5 1 24 5 41 9 l33 7 -25 -44 c-53 -92 -14 -237 77 -288
54 -30 151 -34 247 -9 223 57 304 151 262 305 -16 61 -51 106 -101 132 -24 12
-42 22 -40 23 3 0 70 19 150 42 l146 42 -14 48 c-7 26 -19 46 -25 46 -7 -1
-133 -37 -282 -80z m24 -161 c64 -41 87 -154 41 -204 -34 -36 -130 -79 -220
-97 -84 -17 -129 -15 -164 8 -53 35 -74 136 -40 194 51 86 301 151 383 99z"/>
<path d="M4613 2847 c-44 -17 -45 -19 -31 -66 14 -44 23 -47 73 -28 34 13 35
16 16 70 -14 41 -13 40 -58 24z"/>
<path d="M4380 2765 c-49 -19 -340 -122 -427 -152 -40 -14 -73 -31 -73 -38 0
-7 7 -29 15 -49 l15 -36 68 25 c37 13 153 54 257 90 105 37 202 72 217 77 l26
9 -15 45 c-16 48 -24 51 -83 29z"/>
<path d="M4460 2619 c-33 -14 -33 -13 -16 -47 18 -35 42 -20 -205 -122 -197
-82 -214 -92 -235 -132 -19 -37 -13 -73 21 -136 26 -48 28 -50 56 -40 38 13
43 23 25 50 -19 27 -21 72 -3 86 6 6 95 45 197 87 102 43 188 79 192 81 3 2
14 -19 24 -47 15 -42 22 -49 39 -45 11 3 26 6 33 6 10 0 12 9 7 33 -4 17 -11
36 -16 42 -22 23 -7 43 52 68 l60 26 -16 31 c-13 25 -20 29 -43 25 -102 -20
-108 -19 -122 14 -14 34 -14 34 -50 20z"/>
<path d="M4422 2270 c-273 -98 -350 -311 -181 -495 54 -58 110 -79 190 -72
116 10 283 116 330 209 28 55 23 133 -11 207 -71 150 -186 202 -328 151z m196
-100 c22 -14 42 -39 59 -76 23 -50 24 -61 14 -94 -29 -98 -222 -211 -343 -201
-30 2 -86 60 -104 107 -22 59 -9 105 46 161 40 40 135 97 189 113 48 15 105
11 139 -10z"/>
<path d="M4750 1798 c-69 -60 -136 -119 -150 -131 -110 -95 -170 -151 -170
-158 0 -10 50 -69 59 -69 3 0 29 20 56 44 286 254 333 276 418 197 l42 -39 28
23 c34 30 34 43 2 77 -38 41 -88 48 -160 23 -13 -4 -4 8 22 34 l42 41 -32 34
-32 34 -125 -110z"/>
<path d="M2250 764 l0 -156 -26 32 c-41 48 -80 63 -159 63 -119 1 -177 -48
-211 -176 -16 -62 -16 -214 1 -277 31 -117 89 -165 200 -165 84 0 140 22 173
68 18 27 22 29 23 12 1 -11 1 -24 0 -29 -1 -4 1 -17 4 -27 5 -15 16 -19 50
-19 24 0 45 4 47 10 2 5 2 192 0 415 l-2 405 -50 0 -50 0 0 -156z m-83 -151
c58 -27 78 -84 78 -218 0 -89 -4 -118 -20 -150 -26 -53 -76 -85 -131 -85 -57
0 -90 16 -115 56 -20 33 -39 144 -33 199 2 17 5 50 8 75 6 59 31 107 64 125
36 19 106 19 149 -2z"/>
<path d="M2507 913 c-2 -5 -3 -26 -3 -48 1 -39 2 -39 41 -41 54 -2 60 4 61 54
l0 42 -47 0 c-26 0 -50 -3 -52 -7z"/>
<path d="M3648 880 c-2 -23 -1 -44 2 -48 3 -4 25 -8 50 -7 l45 0 3 48 3 47
-49 0 -50 0 -4 -40z"/>
<path d="M107 873 c-2 -4 -4 -182 -4 -395 l0 -388 53 0 54 0 0 154 0 154 133
0 c151 0 186 5 245 33 85 41 129 128 120 237 -6 68 -26 110 -69 146 -64 54
-88 59 -316 63 -116 2 -213 0 -216 -4z m376 -88 c93 -14 136 -87 114 -196 -16
-80 -78 -106 -255 -105 l-127 1 -3 152 -3 152 33 3 c47 4 196 0 241 -7z"/>
<path d="M3359 763 l-14 -68 -37 1 c-38 1 -38 1 -38 -38 0 -35 3 -39 23 -38
12 1 27 2 34 1 8 -1 13 -64 15 -233 3 -251 7 -271 61 -295 21 -10 144 -10 154
0 2 3 5 20 6 38 l2 34 -47 0 c-26 0 -53 6 -60 13 -10 10 -14 67 -15 227 l-2
215 32 1 c18 1 42 0 55 -1 21 -1 25 5 25 45 0 30 -4 33 -40 33 -75 -1 -75 -1
-73 40 4 88 3 92 -33 92 -34 0 -34 0 -48 -67z"/>
<path d="M1029 692 c-28 -14 -56 -52 -70 -97 -6 -16 -7 -14 -9 10 -1 17 -3 37
-4 45 -2 8 -3 22 -4 31 -2 12 -13 16 -47 15 l-45 0 0 -303 0 -303 50 0 c45 0
50 2 51 23 0 12 1 103 3 203 2 161 5 185 24 225 27 55 52 71 112 71 l46 -1 0
45 c-1 24 -3 45 -6 45 -26 7 -76 3 -101 -9z"/>
<path d="M1375 691 c-111 -35 -170 -140 -169 -302 2 -192 82 -293 244 -306 96
-8 172 16 227 72 47 47 52 60 26 73 -46 24 -68 22 -84 -7 -44 -77 -197 -85
-261 -14 -22 24 -48 97 -48 134 l0 29 113 1 c61 0 159 0 216 0 l104 -1 -7 75
c-11 125 -60 206 -146 241 -51 22 -156 24 -215 5z m182 -81 c36 -22 58 -58 72
-119 l9 -41 -165 0 -165 0 7 38 c16 89 76 142 159 142 33 0 62 -7 83 -20z"/>
<path d="M2925 700 c-83 -20 -125 -57 -163 -140 -49 -105 -37 -288 24 -382 74
-114 281 -131 379 -30 34 35 65 105 52 118 -3 3 -26 8 -51 9 -42 3 -45 2 -51
-26 -16 -72 -127 -111 -203 -70 -46 24 -74 105 -74 215 0 88 8 132 31 171 51
88 199 81 237 -11 14 -32 17 -34 60 -32 24 1 47 5 50 9 7 12 -24 81 -49 107
-50 54 -161 82 -242 62z"/>
<path d="M4067 699 c-131 -31 -192 -129 -190 -309 1 -150 45 -239 142 -287 55
-27 202 -24 258 5 89 47 135 140 135 280 0 166 -40 250 -139 294 -49 22 -150
30 -206 17z m157 -84 c58 -28 86 -109 82 -233 -4 -106 -19 -154 -61 -191 -35
-30 -58 -36 -130 -31 -81 6 -121 66 -132 197 -10 133 26 237 91 263 34 14 116
11 150 -5z"/>
<path d="M4749 693 c-19 -8 -51 -30 -71 -51 -21 -20 -39 -32 -39 -27 -2 13 -6
46 -7 66 -2 11 -13 15 -47 15 l-45 -1 0 -302 0 -303 50 0 c33 0 50 4 51 13 0
6 1 100 2 207 2 215 11 251 70 294 34 25 119 31 158 11 43 -23 50 -63 52 -305
l1 -220 47 0 c28 0 49 5 51 13 8 21 2 440 -7 477 -10 46 -39 87 -77 106 -41
21 -146 25 -189 7z"/>
<path d="M2506 691 c-1 -3 -2 -139 -2 -301 l1 -295 50 0 50 0 0 299 0 300 -48
1 c-26 1 -49 -1 -51 -4z"/>
<path d="M3650 616 c-1 -320 -1 -475 -1 -498 1 -27 3 -28 51 -28 l50 0 0 303
0 303 -50 0 -50 0 0 -80z"/>
</g>
</svg>
